<?xml version="1.0" encoding="UTF-8" standalone="no"?>
<svg
   xmlns:dc="http://purl.org/dc/elements/1.1/"
   xmlns:cc="http://creativecommons.org/ns#"
   xmlns:rdf="http://www.w3.org/1999/02/22-rdf-syntax-ns#"
   xmlns:svg="http://www.w3.org/2000/svg"
   xmlns="http://www.w3.org/2000/svg"
   xmlns:sodipodi="http://sodipodi.sourceforge.net/DTD/sodipodi-0.dtd"
   xmlns:inkscape="http://www.inkscape.org/namespaces/inkscape"
   sodipodi:docname="bumonochromesmall.svg"
   inkscape:version="1.0 (4035a4fb49, 2020-05-01)"
   id="svg4033"
   version="1.1"
   viewBox="0 0 29.948067 21.617027"
   height="21.617027mm"
   width="29.948067mm">
  <defs
     id="defs4027">
    <clipPath
       clipPathUnits="userSpaceOnUse"
       id="clipPath2265">
      <path
         d="m 660.885,240.41 h 118.063 v 26.886 H 660.885 Z"
         id="path2263" />
    </clipPath>
    <clipPath
       clipPathUnits="userSpaceOnUse"
       id="clipPath2357">
      <path
         d="m 660.891,240.882 h 117.411 v 25.143 H 660.891 Z"
         id="path2355" />
    </clipPath>
  </defs>
  <sodipodi:namedview
     fit-margin-bottom="2"
     fit-margin-right="2"
     fit-margin-left="2"
     fit-margin-top="2"
     inkscape:window-maximized="0"
     inkscape:window-y="163"
     inkscape:window-x="182"
     inkscape:window-height="1198"
     inkscape:window-width="1274"
     showgrid="false"
     inkscape:document-rotation="0"
     inkscape:current-layer="layer1"
     inkscape:document-units="mm"
     inkscape:cy="154.21034"
     inkscape:cx="189.03086"
     inkscape:zoom="1.979899"
     inkscape:pageshadow="2"
     inkscape:pageopacity="0.0"
     borderopacity="1.0"
     bordercolor="#666666"
     pagecolor="#ffffff"
     id="base" />
  <metadata
     id="metadata4030">
    <rdf:RDF>
      <cc:Work
         rdf:about="">
        <dc:format>image/svg+xml</dc:format>
        <dc:type
           rdf:resource="http://purl.org/dc/dcmitype/StillImage" />
        <dc:title></dc:title>
      </cc:Work>
    </rdf:RDF>
  </metadata>
  <g
     transform="translate(0.03156648,-0.08576341)"
     id="layer1"
     inkscape:groupmode="layer"
     inkscape:label="Layer 1">
    <g
       id="g4251">
      <g
         id="g2351"
         transform="matrix(0.80804637,0,0,-0.80804637,-532.06214,216.29021)">
        <g
           clip-path="url(#clipPath2357)"
           id="g2353">
          <g
             transform="translate(689.5811,265.0893)"
             id="g2359">
            <path
               id="path2361"
               style="fill:#000000;fill-opacity:1;fill-rule:nonzero;stroke:none"
               d="m 0,0 v -14.119 c 0,-2.701 -1.762,-4.445 -4.488,-4.445 -2.726,0 -4.489,1.744 -4.489,4.445 V -3.066 H -8.6 v -11.053 c 0,-2.473 1.614,-4.069 4.112,-4.069 2.498,0 4.112,1.596 4.112,4.069 v 11.053 h -1.527 v -11.053 c 0,-1.562 -0.84,-2.542 -2.585,-2.542 -1.745,0 -2.586,0.98 -2.586,2.542 v 12.591 h -3.422 v -12.164 c 0,-3.888 2.246,-6.207 6.008,-6.207 3.762,0 6.008,2.319 6.008,6.207 V -1.54 h 0.376 v -12.152 c 0,-4.123 -2.387,-6.583 -6.384,-6.583 -3.998,0 -6.384,2.46 -6.384,6.583 v 13.691 h -1.527 v -13.691 c 0,-4.897 2.984,-8.11 7.911,-8.11 4.927,0 7.91,3.213 7.91,8.11 L 3.422,0 Z" />
          </g>
          <g
             transform="translate(666.119,248.4913)"
             id="g2363">
            <path
               id="path2365"
               style="fill:#000000;fill-opacity:1;fill-rule:nonzero;stroke:none"
               d="m 0,0 h 2.574 c 0.695,0 2.718,0 2.718,2.053 0,1.852 -1.851,1.852 -2.718,1.852 L 0,3.905 Z m 0,8.473 h 1.938 c 0.752,0 2.313,0 2.313,1.705 0,1.62 -1.474,1.62 -2.313,1.62 H 0 Z m -5.233,8.125 H 1.36 c 3.614,0 5.291,-0.347 6.852,-2.082 C 9.167,13.533 9.485,12.232 9.485,10.988 9.485,9.34 8.733,7.663 6.998,6.679 10.439,5.467 10.525,2.604 10.525,1.706 10.525,0 9.861,-1.88 8.56,-2.949 6.594,-4.597 5.177,-4.799 1.562,-4.799 h -6.795 z" />
          </g>
        </g>
      </g>
    </g>
  </g>
</svg>
