<?xml version="1.0" encoding="UTF-8" standalone="no"?>
<svg
   xmlns:dc="http://purl.org/dc/elements/1.1/"
   xmlns:cc="http://creativecommons.org/ns#"
   xmlns:rdf="http://www.w3.org/1999/02/22-rdf-syntax-ns#"
   xmlns:svg="http://www.w3.org/2000/svg"
   xmlns="http://www.w3.org/2000/svg"
   xmlns:sodipodi="http://sodipodi.sourceforge.net/DTD/sodipodi-0.dtd"
   xmlns:inkscape="http://www.inkscape.org/namespaces/inkscape"
   sodipodi:docname="bumonochrome.svg"
   inkscape:version="1.0 (4035a4fb49, 2020-05-01)"
   id="svg4033"
   version="1.1"
   viewBox="0 0 98.874176 24.317114"
   height="24.317114mm"
   width="98.874176mm">
  <defs
     id="defs4027">
    <clipPath
       clipPathUnits="userSpaceOnUse"
       id="clipPath2265">
      <path
         d="m 660.885,240.41 h 118.063 v 26.886 H 660.885 Z"
         id="path2263" />
    </clipPath>
    <clipPath
       clipPathUnits="userSpaceOnUse"
       id="clipPath2357">
      <path
         d="m 660.891,240.882 h 117.411 v 25.143 H 660.891 Z"
         id="path2355" />
    </clipPath>
  </defs>
  <sodipodi:namedview
     fit-margin-bottom="2"
     fit-margin-right="2"
     fit-margin-left="2"
     fit-margin-top="2"
     inkscape:window-maximized="0"
     inkscape:window-y="163"
     inkscape:window-x="182"
     inkscape:window-height="1198"
     inkscape:window-width="1274"
     showgrid="false"
     inkscape:document-rotation="0"
     inkscape:current-layer="layer1"
     inkscape:document-units="mm"
     inkscape:cy="157.07014"
     inkscape:cx="189.03086"
     inkscape:zoom="1.979899"
     inkscape:pageshadow="2"
     inkscape:pageopacity="0.0"
     borderopacity="1.0"
     bordercolor="#666666"
     pagecolor="#ffffff"
     id="base" />
  <metadata
     id="metadata4030">
    <rdf:RDF>
      <cc:Work
         rdf:about="">
        <dc:format>image/svg+xml</dc:format>
        <dc:type
           rdf:resource="http://purl.org/dc/dcmitype/StillImage" />
        <dc:title></dc:title>
      </cc:Work>
    </rdf:RDF>
  </metadata>
  <g
     transform="translate(0.03156648,0.67089121)"
     id="layer1"
     inkscape:groupmode="layer"
     inkscape:label="Layer 1">
    <g
       transform="matrix(0.80804637,0,0,-0.80804637,-532.06214,216.29021)"
       id="g3963">
      <g
         id="g2261"
         clip-path="url(#clipPath2265)">
        <g
           id="g2267"
           transform="translate(701.9783,258.1228)">
          <path
             d="m 0,0 c 0.816,0 1.248,0.386 1.248,1.05 0,0.881 -0.49,1.267 -1.54,1.267 H -0.968 V 0 Z m -0.292,3.584 c 0.852,0 1.307,0.374 1.307,1.122 0,0.627 -0.432,0.905 -0.992,0.905 H -0.968 V 3.584 Z M 0.257,7.059 C 1.773,7.059 2.822,6.395 2.822,4.971 2.822,3.921 2.344,3.282 1.423,2.98 2.519,2.654 3.09,1.979 3.09,1.05 3.09,-0.724 1.947,-1.448 0.058,-1.448 h -3.707 v 1.026 l 0.874,0.362 v 5.671 l -0.874,0.361 v 1.026 l 2.681,0.061 z"
             style="fill:#19181d;fill-opacity:1;fill-rule:nonzero;stroke:none"
             id="path2269" />
        </g>
        <g
           id="g2271"
           transform="translate(707.6913,259.9327)">
          <path
             d="m 0,0 c 0,-1.327 0.373,-1.931 1.224,-1.931 0.84,0 1.248,0.543 1.248,1.991 0,1.231 -0.35,1.871 -1.189,1.871 C 0.432,1.931 0,1.448 0,0 m 4.279,0.121 c 0,-2.172 -1.224,-3.5 -3.113,-3.5 -1.9,0 -2.973,1.026 -2.973,3.318 0,2.172 1.248,3.439 3.148,3.439 1.889,0 2.938,-1.182 2.938,-3.257"
             style="fill:#19181d;fill-opacity:1;fill-rule:nonzero;stroke:none"
             id="path2273" />
        </g>
        <g
           id="g2275"
           transform="translate(712.4371,263.1301)">
          <path
             d="m 0,0 2.682,0.06 v -4.162 c 0,-0.664 0.187,-0.966 0.711,-0.966 0.758,0 1.318,0.652 1.318,0.652 v 3.149 L 3.778,-0.965 V 0 L 6.46,0.06 V -5.188 L 7.393,-5.43 V -6.371 L 4.932,-6.455 4.816,-5.611 c 0,0 -0.933,-0.965 -2.041,-0.965 -1.166,0 -1.842,0.808 -1.842,2.16 v 3.149 L 0,-0.965 Z"
             style="fill:#19181d;fill-opacity:1;fill-rule:nonzero;stroke:none"
             id="path2277" />
        </g>
        <g
           id="g2279"
           transform="translate(722.9073,262.3579)">
          <path
             d="m 0,0 c 0,0 0.84,0.953 1.621,0.953 0.641,0 1.084,-0.217 1.084,-0.217 L 2.612,-1.581 H 1.563 l -0.175,1.026 c -0.677,0 -1.259,-0.676 -1.259,-0.676 v -3.185 l 1.165,-0.302 v -0.965 h -3.847 v 0.965 l 0.932,0.302 v 3.921 l -0.932,0.302 v 0.965 l 2.448,0.06 z"
             style="fill:#19181d;fill-opacity:1;fill-rule:nonzero;stroke:none"
             id="path2281" />
        </g>
        <g
           id="g2283"
           transform="translate(728.5154,262.3579)">
          <path
             d="m 0,0 c 0,0 1.108,0.929 2.146,0.929 1.131,0 1.772,-0.833 1.772,-2.148 V -4.416 L 4.734,-4.718 V -5.683 H 1.528 v 0.965 l 0.641,0.302 v 2.872 c 0,0.555 -0.303,0.965 -0.793,0.965 -0.723,0 -1.248,-0.688 -1.248,-0.688 V -4.416 L 0.77,-4.718 v -0.965 h -3.323 v 0.965 l 0.932,0.302 v 3.921 l -0.932,0.302 v 0.965 l 2.472,0.06 z"
             style="fill:#19181d;fill-opacity:1;fill-rule:nonzero;stroke:none"
             id="path2285" />
        </g>
        <g
           id="g2287"
           transform="translate(737.7853,260.6565)">
          <path
             d="M 0,0 C 0,0.688 -0.28,1.207 -0.956,1.207 -1.609,1.207 -2.017,0.712 -2.11,0 Z m -2.134,-1.122 c 0.07,-0.965 0.607,-1.532 1.411,-1.532 0.968,0 1.959,0.567 1.959,0.567 l 0.501,-1.002 c 0,0 -1.165,-1.013 -2.658,-1.013 -2.006,0 -3.032,1.206 -3.032,3.258 0,2.111 1.155,3.498 3.114,3.498 1.737,0 2.646,-1.11 2.646,-2.835 0,-0.458 -0.07,-0.905 -0.07,-0.941 z"
             style="fill:#19181d;fill-opacity:1;fill-rule:nonzero;stroke:none"
             id="path2289" />
        </g>
        <g
           id="g2291"
           transform="translate(751.1705,256.6748)">
          <path
             d="m 0,0 h -3.16 v 0.965 l 0.619,0.302 v 2.872 c 0,0.663 -0.187,0.989 -0.677,0.989 -0.758,0 -1.294,-0.627 -1.294,-0.627 V 1.267 L -3.906,0.965 V 0 h -2.962 v 0.965 l 0.607,0.302 v 2.872 c 0,0.663 -0.163,0.989 -0.665,0.989 -0.758,0 -1.305,-0.627 -1.305,-0.627 V 1.267 L -7.614,0.965 V 0 h -3.264 v 0.965 l 0.897,0.302 v 3.921 l -0.886,0.302 v 0.965 l 2.437,0.061 0.081,-0.857 c 0,0 1.015,0.977 2.041,0.977 0.828,0 1.341,-0.398 1.609,-1.038 0.199,0.206 1.073,1.038 2.111,1.038 1.224,0 1.795,-0.82 1.795,-2.172 V 1.267 L 0,0.965 Z"
             style="fill:#19181d;fill-opacity:1;fill-rule:nonzero;stroke:none"
             id="path2293" />
        </g>
        <g
           id="g2295"
           transform="translate(753.5607,259.9327)">
          <path
             d="m 0,0 c 0,-1.327 0.373,-1.931 1.224,-1.931 0.839,0 1.248,0.543 1.248,1.991 0,1.231 -0.35,1.871 -1.19,1.871 C 0.431,1.931 0,1.448 0,0 m 4.279,0.121 c 0,-2.172 -1.224,-3.5 -3.113,-3.5 -1.901,0 -2.974,1.026 -2.974,3.318 0,2.172 1.248,3.439 3.149,3.439 1.889,0 2.938,-1.182 2.938,-3.257"
             style="fill:#19181d;fill-opacity:1;fill-rule:nonzero;stroke:none"
             id="path2297" />
        </g>
        <g
           id="g2299"
           transform="translate(758.3063,263.1301)">
          <path
             d="m 0,0 2.682,0.06 v -4.162 c 0,-0.664 0.186,-0.966 0.711,-0.966 0.758,0 1.318,0.652 1.318,0.652 v 3.149 L 3.778,-0.965 V 0 L 6.46,0.06 V -5.188 L 7.392,-5.43 v -0.941 l -2.46,-0.084 -0.116,0.844 c 0,0 -0.933,-0.965 -2.041,-0.965 -1.166,0 -1.842,0.808 -1.842,2.16 v 3.149 L 0,-0.965 Z"
             style="fill:#19181d;fill-opacity:1;fill-rule:nonzero;stroke:none"
             id="path2301" />
        </g>
        <g
           id="g2303"
           transform="translate(770.7823,257.3022)">
          <path
             d="m 0,0 c -0.571,-0.435 -1.224,-0.748 -1.982,-0.748 -1.341,0 -1.726,0.965 -1.726,2.353 V 4.38 h -1.085 v 1.17 l 1.085,0.157 v 1.665 l 1.749,0.326 V 5.707 h 1.632 V 4.38 H -1.959 V 1.726 c 0,-0.773 0.128,-1.087 0.617,-1.087 0.316,0 0.771,0.194 0.922,0.278 z"
             style="fill:#19181d;fill-opacity:1;fill-rule:nonzero;stroke:none"
             id="path2305" />
        </g>
        <g
           id="g2307"
           transform="translate(773.6968,262.4907)">
          <path
             d="M 0,0 C 0.338,0.29 1.096,0.82 1.959,0.82 3.148,0.82 3.79,0 3.79,-1.352 V -4.549 L 4.606,-4.851 V -5.816 H 1.435 v 0.965 l 0.606,0.29 v 2.92 c 0,0.603 -0.233,0.965 -0.77,0.965 C 0.618,-0.676 0,-1.315 0,-1.315 v -3.234 l 0.618,-0.302 v -0.965 h -3.299 v 0.965 l 0.932,0.302 V 2.232 L -2.681,2.474 V 3.439 L 0,3.535 Z"
             style="fill:#19181d;fill-opacity:1;fill-rule:nonzero;stroke:none"
             id="path2309" />
        </g>
        <g
           id="g2311"
           transform="translate(700.999,247.0359)">
          <path
             d="m 0,0 c 0,-1.388 0.385,-1.931 1.527,-1.931 1.237,0 1.505,0.688 1.505,2.112 v 3.62 L 2.122,4.163 V 5.188 L 5.713,5.249 V 4.163 L 4.839,3.801 v -3.62 c 0,-2.329 -0.863,-3.584 -3.37,-3.584 -2.343,0 -3.276,1.074 -3.276,3.403 V 3.801 L -2.67,4.163 V 5.188 L 0.91,5.249 V 4.163 L 0,3.801 Z"
             style="fill:#19181d;fill-opacity:1;fill-rule:nonzero;stroke:none"
             id="path2313" />
        </g>
        <g
           id="g2315"
           transform="translate(709.965,249.4611)">
          <path
             d="m 0,0 c 0,0 1.108,0.929 2.146,0.929 1.131,0 1.772,-0.833 1.772,-2.148 V -4.416 L 4.734,-4.718 V -5.683 H 1.528 v 0.965 l 0.641,0.302 v 2.872 c 0,0.555 -0.303,0.965 -0.793,0.965 -0.723,0 -1.248,-0.688 -1.248,-0.688 V -4.416 L 0.77,-4.718 v -0.965 h -3.323 v 0.965 l 0.932,0.302 v 3.921 l -0.932,0.302 v 0.965 l 2.472,0.06 z"
             style="fill:#19181d;fill-opacity:1;fill-rule:nonzero;stroke:none"
             id="path2317" />
        </g>
        <g
           id="g2319"
           transform="translate(717.0078,253.3702)">
          <path
             d="m 0,0 c 0.606,0 0.979,-0.326 0.979,-1.086 0,-0.712 -0.501,-1.098 -0.979,-1.098 -0.63,0 -1.003,0.386 -1.003,1.098 C -1.003,-0.398 -0.525,0 0,0 m 1.772,-8.627 v -0.965 h -3.498 v 0.965 l 0.933,0.302 v 3.921 l -0.933,0.302 v 0.965 l 2.682,0.06 v -5.248 z"
             style="fill:#19181d;fill-opacity:1;fill-rule:nonzero;stroke:none"
             id="path2321" />
        </g>
        <g
           id="g2323"
           transform="translate(722.8842,250.2332)">
          <path
             d="M 0,0 3.055,0.06 V -0.965 L 2.39,-1.122 0.513,-6.455 h -1.924 l -1.842,5.297 -0.56,0.193 V 0 l 3.055,0.06 V -0.965 L -1.411,-1.086 -0.35,-4.645 0.677,-1.122 0,-0.965 Z"
             style="fill:#19181d;fill-opacity:1;fill-rule:nonzero;stroke:none"
             id="path2325" />
        </g>
        <g
           id="g2327"
           transform="translate(730.0082,247.7597)">
          <path
             d="M 0,0 C 0,0.688 -0.28,1.207 -0.956,1.207 -1.609,1.207 -2.017,0.712 -2.11,0 Z m -2.134,-1.122 c 0.07,-0.966 0.607,-1.532 1.411,-1.532 0.968,0 1.959,0.566 1.959,0.566 l 0.501,-1.001 c 0,0 -1.165,-1.013 -2.658,-1.013 -2.006,0 -3.032,1.206 -3.032,3.258 0,2.111 1.155,3.498 3.114,3.498 1.737,0 2.646,-1.11 2.646,-2.835 0,-0.459 -0.07,-0.905 -0.07,-0.941 z"
             style="fill:#19181d;fill-opacity:1;fill-rule:nonzero;stroke:none"
             id="path2329" />
        </g>
        <g
           id="g2331"
           transform="translate(735.0686,249.4611)">
          <path
             d="m 0,0 c 0,0 0.84,0.953 1.621,0.953 0.641,0 1.084,-0.217 1.084,-0.217 L 2.612,-1.581 H 1.563 l -0.175,1.026 c -0.677,0 -1.259,-0.676 -1.259,-0.676 v -3.185 l 1.165,-0.302 v -0.965 h -3.847 v 0.965 l 0.932,0.302 v 3.921 l -0.932,0.302 v 0.965 l 2.448,0.06 z"
             style="fill:#19181d;fill-opacity:1;fill-rule:nonzero;stroke:none"
             id="path2333" />
        </g>
        <g
           id="g2335"
           transform="translate(739.3009,245.1053)">
          <path
             d="m 0,0 c 0,0 0.408,-0.121 0.979,-0.121 0.642,0 0.957,0.205 0.957,0.592 0,0.989 -3.114,0.627 -3.114,2.775 0,1.508 1.166,2.063 2.403,2.063 1.049,0 2.168,-0.362 2.168,-0.362 L 3.346,3.137 H 2.355 L 2.18,3.861 c 0,0 -0.338,0.121 -0.804,0.121 -0.501,0 -0.805,-0.218 -0.805,-0.616 0,-0.977 3.113,-0.555 3.113,-2.642 0,-1.388 -1.084,-2.172 -2.681,-2.172 -1.108,0 -2.146,0.266 -2.146,0.266 v 1.966 h 1.05 z"
             style="fill:#19181d;fill-opacity:1;fill-rule:nonzero;stroke:none"
             id="path2337" />
        </g>
        <g
           id="g2339"
           transform="translate(745.4103,253.3702)">
          <path
             d="m 0,0 c 0.607,0 0.979,-0.326 0.979,-1.086 0,-0.712 -0.501,-1.098 -0.979,-1.098 -0.63,0 -1.003,0.386 -1.003,1.098 C -1.003,-0.398 -0.524,0 0,0 m 1.772,-8.627 v -0.965 h -3.498 v 0.965 l 0.933,0.302 v 3.921 l -0.933,0.302 v 0.965 l 2.682,0.06 v -5.248 z"
             style="fill:#19181d;fill-opacity:1;fill-rule:nonzero;stroke:none"
             id="path2341" />
        </g>
        <g
           id="g2343"
           transform="translate(752.3834,244.4053)">
          <path
             d="m 0,0 c -0.571,-0.434 -1.224,-0.748 -1.982,-0.748 -1.341,0 -1.726,0.965 -1.726,2.353 V 4.38 h -1.085 v 1.17 l 1.085,0.157 v 1.665 l 1.749,0.326 V 5.707 h 1.632 V 4.38 H -1.959 V 1.726 c 0,-0.773 0.128,-1.086 0.617,-1.086 0.316,0 0.771,0.193 0.922,0.277 z"
             style="fill:#19181d;fill-opacity:1;fill-rule:nonzero;stroke:none"
             id="path2345" />
        </g>
        <g
           id="g2347"
           transform="translate(752.4409,250.2332)">
          <path
             d="M 0,0 3.114,0.06 V -0.965 L 2.461,-1.086 3.499,-4.464 4.49,-1.122 3.813,-0.965 V 0 L 6.95,0.06 V -0.965 L 6.227,-1.122 4.513,-6.069 c -0.56,-1.593 -1.318,-3.282 -3.172,-3.282 -0.396,0 -1.131,0.096 -1.131,0.096 l 0.163,1.291 h 0.758 c 0.933,0 1.364,1.026 1.563,1.497 L 0.618,-1.158 0,-0.965 Z"
             style="fill:#19181d;fill-opacity:1;fill-rule:nonzero;stroke:none"
             id="path2349" />
        </g>
      </g>
      <g
         id="g2351">
        <g
           clip-path="url(#clipPath2357)"
           id="g2353">
          <g
             transform="translate(689.5811,265.0893)"
             id="g2359">
            <path
               id="path2361"
               style="fill:#000000;fill-opacity:1;fill-rule:nonzero;stroke:none"
               d="m 0,0 v -14.119 c 0,-2.701 -1.762,-4.445 -4.488,-4.445 -2.726,0 -4.489,1.744 -4.489,4.445 V -3.066 H -8.6 v -11.053 c 0,-2.473 1.614,-4.069 4.112,-4.069 2.498,0 4.112,1.596 4.112,4.069 v 11.053 h -1.527 v -11.053 c 0,-1.562 -0.84,-2.542 -2.585,-2.542 -1.745,0 -2.586,0.98 -2.586,2.542 v 12.591 h -3.422 v -12.164 c 0,-3.888 2.246,-6.207 6.008,-6.207 3.762,0 6.008,2.319 6.008,6.207 V -1.54 h 0.376 v -12.152 c 0,-4.123 -2.387,-6.583 -6.384,-6.583 -3.998,0 -6.384,2.46 -6.384,6.583 v 13.691 h -1.527 v -13.691 c 0,-4.897 2.984,-8.11 7.911,-8.11 4.927,0 7.91,3.213 7.91,8.11 L 3.422,0 Z" />
          </g>
          <g
             transform="translate(666.119,248.4913)"
             id="g2363">
            <path
               id="path2365"
               style="fill:#000000;fill-opacity:1;fill-rule:nonzero;stroke:none"
               d="m 0,0 h 2.574 c 0.695,0 2.718,0 2.718,2.053 0,1.852 -1.851,1.852 -2.718,1.852 L 0,3.905 Z m 0,8.473 h 1.938 c 0.752,0 2.313,0 2.313,1.705 0,1.62 -1.474,1.62 -2.313,1.62 H 0 Z m -5.233,8.125 H 1.36 c 3.614,0 5.291,-0.347 6.852,-2.082 C 9.167,13.533 9.485,12.232 9.485,10.988 9.485,9.34 8.733,7.663 6.998,6.679 10.439,5.467 10.525,2.604 10.525,1.706 10.525,0 9.861,-1.88 8.56,-2.949 6.594,-4.597 5.177,-4.799 1.562,-4.799 h -6.795 z" />
          </g>
        </g>
      </g>
    </g>
  </g>
</svg>
